<?xml version="1.0" standalone="no"?>
<!DOCTYPE svg PUBLIC "-//W3C//DTD SVG 20010904//EN"
 "http://www.w3.org/TR/2001/REC-SVG-20010904/DTD/svg10.dtd">
<svg version="1.0" xmlns="http://www.w3.org/2000/svg"
 width="700.000000pt" height="700.000000pt" viewBox="0 0 700.000000 700.000000"
 preserveAspectRatio="xMidYMid meet">
<metadata>
Created by potrace 1.14, written by Peter Selinger 2001-2017
</metadata>
<g transform="translate(0.000000,700.000000) scale(0.100000,-0.100000)"
fill="#000000" stroke="none">
<path d="M3385 6849 c-123 -43 -201 -126 -239 -253 -18 -58 -18 -320 -1 -385
63 -241 340 -353 548 -222 87 56 146 142 166 241 6 30 9 122 7 205 -3 170 -13
206 -79 292 -64 86 -153 132 -266 139 -61 4 -88 0 -136 -17z"/>
<path d="M1114 5785 c-47 -11 -117 -46 -154 -77 -99 -84 -148 -239 -116 -361
31 -115 58 -150 221 -284 94 -77 123 -94 185 -114 168 -52 352 29 434 189 52
102 48 236 -12 345 -16 30 -56 75 -102 115 -41 35 -88 75 -103 89 -108 93
-230 127 -353 98z"/>
<path d="M5691 5780 c-66 -22 -108 -51 -235 -160 -87 -74 -110 -100 -136 -153
-37 -76 -49 -142 -37 -217 27 -181 166 -306 347 -314 131 -7 231 47 418 226
184 177 145 476 -78 592 -84 44 -192 54 -279 26z"/>
<path d="M3378 5615 c-2 -1 -41 -6 -88 -9 -242 -19 -538 -108 -778 -233 -378
-197 -720 -546 -905 -924 -97 -198 -164 -402 -193 -583 -3 -21 -7 -48 -10 -60
-18 -93 -24 -369 -12 -506 44 -475 265 -951 592 -1275 34 -33 81 -72 106 -86
25 -14 86 -57 135 -96 278 -219 661 -378 1011 -418 33 -4 70 -9 84 -11 31 -5
328 -5 355 0 11 2 52 7 90 11 320 31 702 185 978 394 104 79 193 141 203 141
12 0 92 82 167 170 196 233 352 527 427 806 24 87 26 94 40 174 5 30 12 69 15
85 11 62 19 184 19 300 1 438 -116 822 -359 1185 -98 146 -136 191 -265 320
-130 131 -317 275 -445 343 -49 26 -190 95 -232 112 -145 63 -420 134 -578
150 -63 7 -352 15 -357 10z m227 -739 c411 -24 804 -253 1041 -607 215 -322
287 -710 199 -1084 -34 -146 -92 -285 -173 -415 -52 -84 -53 -86 -137 -182
-33 -38 -74 -88 -92 -111 -17 -23 -42 -53 -55 -66 -35 -36 -195 -139 -268
-173 -109 -51 -150 -68 -150 -61 0 3 -6 1 -12 -4 -13 -10 -150 -49 -203 -57
-322 -51 -604 -11 -880 126 -123 60 -269 163 -296 208 -12 18 -40 54 -64 79
-178 188 -297 400 -354 631 -35 145 -39 180 -40 340 -1 131 5 184 33 319 8 38
36 129 48 159 6 15 12 33 14 39 1 7 28 61 59 120 225 428 646 706 1120 740 44
3 82 7 83 9 2 1 9 1 15 -1 7 -2 57 -6 112 -9z"/>
<path d="M615 3365 c-33 -7 -81 -16 -107 -19 -125 -16 -234 -90 -289 -197 -21
-43 -50 -162 -44 -182 2 -7 6 -30 9 -52 7 -62 39 -125 89 -180 56 -63 123
-100 209 -116 59 -11 81 -10 200 10 173 30 237 53 300 109 62 57 90 100 113
177 50 171 -37 357 -203 433 -69 31 -185 39 -277 17z"/>
<path d="M6153 3366 c-104 -34 -179 -100 -229 -202 -25 -52 -29 -70 -29 -149
0 -78 4 -98 28 -150 35 -74 106 -149 172 -180 28 -13 88 -31 135 -39 47 -9 99
-18 115 -21 152 -29 261 -4 357 83 75 68 119 163 120 262 1 75 -9 114 -45 183
-55 105 -150 169 -287 193 -41 7 -88 16 -105 19 -65 14 -190 15 -232 1z"/>
<path d="M2006 1403 c-59 -17 -119 -54 -158 -97 -54 -58 -168 -270 -182 -339
-40 -191 83 -369 282 -405 147 -26 286 52 376 213 134 237 147 308 84 447 -68
147 -246 228 -402 181z"/>
<path d="M4810 1404 c-100 -27 -172 -89 -220 -190 -35 -72 -41 -158 -17 -236
16 -51 134 -263 170 -305 59 -68 165 -115 261 -114 226 1 391 226 324 441 -22
72 -140 269 -189 319 -83 83 -212 116 -329 85z"/>
</g>
</svg>
