<?xml version="1.0" standalone="no"?>
<!DOCTYPE svg PUBLIC "-//W3C//DTD SVG 20010904//EN"
 "http://www.w3.org/TR/2001/REC-SVG-20010904/DTD/svg10.dtd">
<svg version="1.0" xmlns="http://www.w3.org/2000/svg"
 width="700.000000pt" height="700.000000pt" viewBox="0 0 700.000000 700.000000"
 preserveAspectRatio="xMidYMid meet">
<metadata>
Created by potrace 1.14, written by Peter Selinger 2001-2017
</metadata>
<g transform="translate(0.000000,700.000000) scale(0.100000,-0.100000)"
fill="#000000" stroke="none">
<path d="M3382 6831 c-103 -39 -186 -129 -218 -239 -12 -41 -15 -91 -12 -215
3 -160 3 -163 36 -229 38 -77 92 -130 171 -167 47 -22 70 -26 141 -26 71 0 94
4 141 26 79 37 133 90 171 167 l33 67 0 185 c0 179 -1 187 -27 242 -35 76 -98
142 -167 175 -76 36 -192 42 -269 14z"/>
<path d="M1103 5766 c-103 -34 -176 -98 -222 -196 -22 -46 -26 -69 -26 -140 0
-77 3 -92 33 -153 29 -59 49 -81 150 -168 155 -132 199 -153 317 -153 70 0
101 5 138 22 62 28 142 104 175 167 24 45 27 61 27 155 0 95 -3 110 -27 155
-43 80 -231 249 -327 293 -67 31 -175 39 -238 18z"/>
<path d="M5705 5767 c-63 -21 -99 -43 -172 -104 -115 -95 -173 -156 -201 -208
-24 -45 -27 -60 -27 -155 0 -94 3 -110 27 -155 33 -63 113 -139 175 -167 37
-17 68 -22 138 -22 118 0 162 21 317 153 101 87 120 108 150 168 30 61 33 76
33 153 0 71 -4 94 -26 141 -58 124 -169 199 -302 205 -42 2 -88 -2 -112 -9z"/>
<path d="M3270 5589 c-714 -81 -1338 -519 -1655 -1163 -396 -804 -234 -1780
401 -2410 645 -642 1624 -796 2434 -385 851 432 1299 1367 1105 2304 -202 972
-1074 1672 -2070 1664 -77 -1 -174 -5 -215 -10z m495 -718 c284 -55 512 -177
721 -385 274 -275 408 -598 408 -986 0 -379 -130 -699 -395 -974 -200 -209
-451 -346 -736 -403 -123 -25 -405 -25 -523 0 -197 41 -398 128 -553 238 -173
123 -354 340 -447 535 -94 196 -134 376 -134 604 0 389 134 711 408 986 240
239 508 365 866 408 73 9 289 -4 385 -23z"/>
<path d="M566 3339 c-149 -28 -189 -44 -252 -101 -153 -140 -160 -362 -16
-506 98 -99 206 -119 420 -78 201 38 275 83 334 204 30 60 33 75 33 157 0 76
-4 98 -26 145 -34 72 -97 136 -167 168 -74 35 -186 38 -326 11z"/>
<path d="M6129 3336 c-68 -27 -103 -53 -146 -107 -50 -63 -68 -122 -68 -219 0
-76 4 -93 33 -152 59 -121 133 -166 334 -204 214 -41 322 -21 420 78 144 144
137 366 -16 506 -64 58 -103 73 -261 102 -148 27 -225 26 -296 -4z"/>
<path d="M1973 1399 c-85 -33 -148 -100 -226 -237 -85 -149 -100 -196 -94
-285 8 -129 85 -239 206 -295 47 -22 70 -27 141 -27 158 0 239 60 352 258 98
172 115 245 82 357 -31 104 -112 193 -210 230 -73 27 -180 26 -251 -1z"/>
<path d="M4774 1399 c-59 -22 -135 -85 -169 -139 -30 -47 -55 -132 -55 -185 0
-67 26 -137 98 -262 78 -136 125 -188 208 -229 51 -25 70 -29 144 -29 70 0 95
5 141 27 118 55 196 164 206 291 7 88 -12 148 -97 294 -81 139 -140 200 -226
232 -72 28 -180 27 -250 0z"/>
</g>
</svg>
