<svg viewBox="0 0 100 100" xmlns="http://www.w3.org/2000/svg" stroke-linecap="round" fill="none" stroke-linejoin="round" stroke-width="10" stroke="#bcb9b9"><circle cx="50" cy="50" r="25"/><path d="M28.555 87.143L30 84.641m41.445 2.502L70 84.641"/><path d="M67.676 67.673c9.763-9.763 9.763-25.592 0-35.355-9.757-9.757-25.599-9.757-35.356 0-9.763 9.763-9.763 25.592 0 35.355-9.763-9.763-9.763-25.592 0-35.355 9.757-9.757 25.599-9.757 35.356 0 9.763 9.763 9.763 25.592 0 35.355M50 7.111V10M17.145 22.431l2.213 1.857M7.762 57.448l2.846-.502m81.63.502l-2.846-.502m-6.537-34.515l-2.213 1.857z" stroke="#ffa600"/></svg>